<svg width="35" height="35" viewBox="0 0 35 35" fill="none" xmlns="http://www.w3.org/2000/svg">
<g clip-path="url(#clip0_125_77)">
<path d="M17.5 4.375C28 4.375 30.625 7 30.625 17.5C30.625 28 28 30.625 17.5 30.625C7 30.625 4.375 28 4.375 17.5C4.375 7 7 4.375 17.5 4.375Z" stroke="#111111" stroke-width="2" stroke-linecap="round" stroke-linejoin="round"/>
<path d="M17.5 23.3333V23.3479" stroke="#111111" stroke-width="2" stroke-linecap="round" stroke-linejoin="round"/>
<path d="M17.5 18.9584C18.1559 18.9603 18.7933 18.7412 19.3093 18.3363C19.8253 17.9314 20.1897 17.3644 20.3438 16.7269C20.4979 16.0893 20.4326 15.4185 20.1584 14.8226C19.8843 14.2268 19.4173 13.7407 18.8329 13.4429C18.2528 13.1457 17.5891 13.0536 16.9499 13.1815C16.3108 13.3094 15.7336 13.6498 15.3125 14.1473" stroke="#111111" stroke-width="2" stroke-linecap="round" stroke-linejoin="round"/>
</g>
<defs>
<clipPath id="clip0_125_77">
<rect width="35" height="35" fill="white"/>
</clipPath>
</defs>
</svg>
