<svg width="44" height="44" viewBox="0 0 44 44" fill="none" xmlns="http://www.w3.org/2000/svg">
<g clip-path="url(#clip0_11_738)">
<path fill-rule="evenodd" clip-rule="evenodd" d="M43.849 21.9999C43.849 34.0669 34.0666 43.8493 21.9997 43.8493C9.93266 43.8493 0.150391 34.0669 0.150391 21.9999C0.150391 9.9329 9.93266 0.150635 21.9997 0.150635C34.0666 0.150635 43.849 9.9329 43.849 21.9999ZM22.7826 16.2808C20.6575 17.1647 16.4101 18.9941 10.0406 21.7692C9.00631 22.1806 8.46449 22.5831 8.41518 22.9764C8.33182 23.6415 9.16452 23.9032 10.2984 24.2598C10.4527 24.3083 10.6125 24.3586 10.7763 24.4117C11.8919 24.7744 13.3926 25.1987 14.1727 25.2155C14.8803 25.2308 15.6702 24.9391 16.5422 24.3402C22.4935 20.323 25.5655 18.2926 25.7582 18.2486C25.8943 18.2178 26.0829 18.1789 26.2107 18.2926C26.3385 18.4062 26.3259 18.6212 26.3123 18.6789C26.2299 19.0306 22.9613 22.0694 21.2697 23.6419C20.7425 24.1322 20.3684 24.4798 20.292 24.5594C20.1207 24.7372 19.9461 24.9055 19.7783 25.0672C18.742 26.0663 17.9646 26.8155 19.8213 28.0391C20.7137 28.6271 21.4275 29.1132 22.1398 29.5983C22.9176 30.1281 23.6935 30.6564 24.6974 31.3145C24.9531 31.4821 25.1974 31.6563 25.4353 31.8258C26.3405 32.4712 27.1537 33.0511 28.1586 32.9585C28.7424 32.9049 29.3454 32.3559 29.6518 30.7185C30.3756 26.849 31.7985 18.4647 32.1273 15.0099C32.1561 14.7073 32.1199 14.3199 32.0908 14.1498C32.0615 13.9798 32.0008 13.7375 31.7797 13.5581C31.5179 13.3457 31.1139 13.3009 30.933 13.3039C30.1113 13.3186 28.8503 13.757 22.7826 16.2808Z" fill="#373737"/>
</g>
<defs>
<clipPath id="clip0_11_738">
<rect width="44" height="44" fill="white"/>
</clipPath>
</defs>
</svg>
