<svg width="233" height="291" viewBox="0 0 233 291" fill="none" xmlns="http://www.w3.org/2000/svg">
<ellipse cx="120.258" cy="146.415" rx="112.5" ry="144" fill="#FF3939"/>
<ellipse cx="113.428" cy="144.584" rx="112.5" ry="144" fill="#FF7575"/>
<ellipse cx="113.428" cy="144.584" rx="92.5" ry="118" fill="white"/>
<ellipse cx="113.428" cy="144.584" rx="71.5" ry="92" fill="#FF7575"/>
<ellipse cx="113.428" cy="144.584" rx="48.5" ry="62" fill="white"/>
<ellipse cx="113.428" cy="144.584" rx="18.5" ry="24" fill="#FF7575"/>
<path d="M114.601 143.183C113.517 145.061 91.3807 134.311 80.7949 128.199C70.209 122.087 62.5065 115.61 63.5908 113.732C64.6752 111.854 74.1357 115.286 84.7216 121.398C95.3075 127.51 115.685 141.305 114.601 143.183Z" fill="#FCFF75"/>
<path d="M47.0807 104.447C50.6038 98.345 74.7029 105.663 85.282 111.771C95.8612 117.879 101.581 127.777 98.0582 133.879C94.5352 139.981 83.1031 139.976 72.524 133.868C61.9449 127.761 43.5577 110.549 47.0807 104.447Z" fill="#467AFF"/>
<path d="M71.7177 118.748C68.2927 122.173 53.7027 113.136 47.8195 107.252C41.9363 101.369 39.9435 93.8236 43.3684 90.3987C46.7934 86.9737 54.3391 88.9665 60.2223 94.8497C66.1054 100.733 75.1426 115.323 71.7177 118.748Z" fill="#467AFF"/>
<path d="M71.997 118.262C70.7433 122.941 53.5891 122.409 45.5524 120.256C37.5157 118.103 32.017 112.564 33.2706 107.885C34.5243 103.207 42.0556 101.16 50.0922 103.313C58.1289 105.467 73.2506 113.584 71.997 118.262Z" fill="#467AFF"/>
<path d="M64.7998 115.564C62.9022 118.851 47.1927 113.333 40.1355 109.259C33.0782 105.184 28.8955 99.2169 30.7931 95.9302C32.6907 92.6434 39.95 93.282 47.0073 97.3565C54.0645 101.431 66.6974 112.277 64.7998 115.564Z" fill="#467AFF"/>
</svg>
